<svg width="200" height="200" viewBox="0 0 200 200" fill="none" xmlns="http://www.w3.org/2000/svg">
<path d="M57.691 154.168H57.79C67.249 154.144 74.981 146.771 75.577 137.455H76.069H82.479H112.71C113.309 146.77 121.038 154.143 130.497 154.168H130.596C139.843 154.144 147.439 147.099 148.333 138.081H170.702C177.393 138.081 182.817 132.769 182.817 126.215V117.913V101.42V99.9317C182.817 93.3757 177.393 88.0668 170.702 88.0668H162.14C161.911 87.1788 160.079 80.0598 158.247 71.3518C156.451 62.8098 154.834 61.4448 145.939 61.6288H126.565V53.0668C126.565 48.4988 123.522 45.8077 119.744 46.0107H82.477H76.067H24.824C21.046 45.8077 18 48.4978 18 53.0668V128.368C18 134.923 20.641 138.082 27.333 138.082H39.955C40.85 147.1 48.445 154.144 57.692 154.169L57.691 154.168Z" fill="url(#paint0_linear_2866_508)"/>
<path d="M130.287 83.4959C130.287 85.3239 129.801 86.7379 132.691 86.7379H139.736H146.798H152.02C153.663 86.7379 154.524 85.4919 154.157 83.9069L151.269 69.7199C151.001 69.0149 150.167 68.3759 149.519 68.3799H132.29C131.43 68.3799 130.288 69.1009 130.288 70.2119V83.4959H130.287Z" fill="#BAA1E2"/>
<path d="M182.82 119.846V126.211C182.82 132.767 177.394 138.08 170.705 138.08H148.336C147.438 147.111 139.818 154.164 130.55 154.164C121.067 154.164 113.311 146.781 112.711 137.452H82.4819H76.073H75.579C74.982 146.781 67.224 154.164 57.741 154.164C48.474 154.164 40.853 147.111 39.957 138.08H27.333C20.641 138.08 18.002 134.917 18.002 128.363V119.845C39.201 114.636 68.3 111.421 100.41 111.421C132.52 111.421 161.622 114.637 182.82 119.846Z" fill="url(#paint1_linear_2866_508)"/>
<path d="M65.731 61.3223L92.842 82.8903L65.731 104.459V95.1832H18V70.5952H65.731V61.3223Z" fill="#29E6BF"/>
<path d="M94.9053 90.7939L102.011 84.806C99.3123 83.682 97.4153 81.018 97.4153 77.91V76.7889C97.4153 72.6639 100.762 69.318 104.886 69.318L104.878 66.666H109.414V69.318H113.318V73.854H104.885C103.264 73.854 101.952 75.1669 101.952 76.7889V77.91C101.952 79.529 103.264 80.843 104.885 80.843H106.285H106.713L119.859 69.764V75.7L112.684 81.7469C115.013 83.0109 116.592 85.48 116.592 88.316V89.436C116.592 93.463 113.404 96.747 109.412 96.901V99.116H104.874V96.907H101.215V92.3719H109.119C110.741 92.3719 112.054 91.056 112.054 89.436V88.316C112.054 86.696 110.742 85.381 109.119 85.381H108.369L94.9023 96.731V90.7939H94.9053Z" fill="#D1C1EC"/>
<path d="M94.9053 90.7939L102.011 84.806C99.3123 83.682 97.4153 81.018 97.4153 77.91V76.7889C97.4153 72.6639 100.762 69.318 104.886 69.318L104.878 66.666H109.414V69.318H113.318V73.854H104.885C103.264 73.854 101.952 75.1669 101.952 76.7889V77.91C101.952 79.529 103.264 80.843 104.885 80.843H106.285H106.713L119.859 69.764V75.7L112.684 81.7469C115.013 83.0109 116.592 85.48 116.592 88.316V89.436C116.592 93.463 113.404 96.747 109.412 96.901V99.116H104.874V96.907H101.215V92.3719H109.119C110.741 92.3719 112.054 91.056 112.054 89.436V88.316C112.054 86.696 110.742 85.381 109.119 85.381H108.369L94.9023 96.731V90.7939H94.9053Z" fill="#29E6BF"/>
<defs>
<linearGradient id="paint0_linear_2866_508" x1="17.1067" y1="98.6872" x2="183.973" y2="101.94" gradientUnits="userSpaceOnUse">
<stop stop-color="#FF6BA6"/>
<stop offset="1" stop-color="#3647D3"/>
</linearGradient>
<linearGradient id="paint1_linear_2866_508" x1="19.2729" y1="128.226" x2="178.654" y2="139.031" gradientUnits="userSpaceOnUse">
<stop stop-color="#1B2BBB"/>
<stop offset="0.6138" stop-color="#0D6DD2"/>
<stop offset="0.9677" stop-color="#068FDE"/>
</linearGradient>
</defs>
</svg>
